{"glyphs":{":":{"x_min":0,"x_max":256,"ha":256,"o":"m 64 411 l 64 554 l 208 554 l 208 411 z m 64 68 l 64 210 l 208 210 l 208 68 z"},"$":{"x_min":0,"x_max":489,"ha":489,"o":"m 237 -99 l 237 -10 q 134 -6 82 57 q 30 119 26 242 l 168 267 q 171 115 248 115 q 277 115 290 133 q 303 152 303 181 q 303 214 291 242 q 279 270 263 289 q 246 307 215 334 l 128 409 q 95 438 75 463 q 55 488 41 527 q 27 566 27 613 q 27 706 80 759 q 132 812 224 819 l 224 904 l 271 904 l 271 819 q 313 816 344 802 q 376 787 394 766 q 413 745 425 714 q 437 684 441 656 q 446 629 448 595 l 306 573 q 305 598 304 614 q 302 631 298 649 q 294 667 287 677 q 280 687 269 693 q 257 699 241 698 q 213 697 198 677 q 184 658 184 630 q 184 608 189 590 q 194 572 206 556 q 217 540 227 530 q 237 521 255 504 l 340 430 q 398 378 431 322 q 463 267 463 191 q 463 110 414 55 q 365 0 283 -9 l 283 -99 z"},"?":{"x_min":0,"x_max":486,"ha":486,"o":"m 132 0 l 132 145 l 280 145 l 280 0 z m 137 210 l 137 338 q 301 479 301 611 q 301 617 301 622 q 299 656 281 674 q 263 691 235 691 q 208 691 193 673 q 181 658 181 634 q 181 630 181 626 q 181 605 190 578 l 53 548 q 40 597 40 621 q 39 635 39 648 q 39 720 80 767 q 129 822 233 822 q 338 822 394 768 q 451 714 451 616 q 451 529 401 448 q 351 368 274 307 l 274 210 z"},"<":{"x_min":0,"x_max":393,"ha":393,"o":"m 335 80 l 31 292 l 31 417 l 335 630 l 335 494 l 140 355 l 335 215 z"},"'":{"x_min":0,"x_max":272,"ha":272,"o":"m 54 522 l 54 810 l 180 810 l 129 522 z"},"=":{"x_min":0,"x_max":437,"ha":437,"o":"m 61 442 l 61 539 l 376 539 l 376 442 z m 61 255 l 61 352 l 376 352 l 376 255 z"},"a":{"x_min":0,"x_max":466,"ha":466,"o":"m 223 100 q 236 100 250 109 q 264 119 272 131 l 272 289 q 232 268 205 234 q 178 200 178 164 q 178 134 190 117 q 202 100 223 100 z m 167 -10 q 128 -9 97 12 q 67 33 52 64 q 37 95 37 130 q 37 152 42 173 q 46 193 52 209 q 59 226 70 240 q 82 255 92 266 q 103 277 119 289 q 136 300 148 307 q 161 314 180 323 q 200 332 211 336 q 223 341 243 349 q 263 356 272 360 l 272 413 q 272 444 264 460 q 256 475 233 475 q 195 475 193 421 l 190 381 l 47 387 q 47 397 48 407 q 55 500 104 544 q 154 587 247 587 q 332 587 375 541 q 418 494 418 412 l 418 145 q 418 79 429 0 l 294 0 q 282 64 280 83 q 268 43 240 17 q 211 -10 167 -10 z"},"L":{"x_min":0,"x_max":432,"ha":432,"o":"m 60 0 l 60 810 l 225 810 l 225 112 l 414 112 l 414 0 z"},"3":{"x_min":0,"x_max":511,"ha":511,"o":"m 263 -13 q 44 -13 44 229 l 44 258 l 199 258 l 199 233 q 199 171 213 144 q 227 116 264 116 q 284 116 297 124 q 309 131 315 148 q 322 164 324 183 q 326 203 326 233 q 326 297 307 329 q 288 360 237 362 l 211 362 l 211 479 l 234 479 q 287 480 306 507 q 326 534 326 596 q 326 647 312 672 q 297 697 261 697 q 225 697 212 669 q 199 642 199 590 l 199 555 l 44 555 l 44 599 q 44 705 101 763 q 158 821 261 821 q 365 821 422 765 q 479 709 479 604 q 479 535 450 488 q 421 440 375 428 q 479 390 479 236 q 479 179 467 135 q 455 90 430 57 q 405 23 363 5 q 320 -13 263 -13 z"},";":{"x_min":0,"x_max":266,"ha":266,"o":"m 63 429 l 63 574 l 207 574 l 207 429 z m 86 -100 l 74 -47 q 143 -41 143 30 l 64 30 l 64 173 l 209 173 l 209 45 q 208 -100 86 -100 z"},"J":{"x_min":0,"x_max":338,"ha":338,"o":"m 11 -19 l 11 97 q 13 97 15 97 q 72 97 92 114 q 113 132 113 188 l 113 810 l 278 810 l 278 182 q 277 129 268 94 q 259 58 238 32 q 217 6 181 -6 q 145 -19 91 -19 z"},"V":{"x_min":0,"x_max":522,"ha":522,"o":"m 177 0 l 22 810 l 166 810 l 261 256 l 351 810 l 500 810 l 345 0 z"},"\"":{"x_min":0,"x_max":364,"ha":364,"o":"m 220 522 l 220 810 l 350 810 l 292 522 z m 43 522 l 43 810 l 173 810 l 115 522 z"},"7":{"x_min":0,"x_max":469,"ha":469,"o":"m 103 0 l 270 692 l 53 692 l 53 810 l 421 810 l 421 710 l 253 0 z"},"S":{"x_min":0,"x_max":504,"ha":504,"o":"m 270 -11 q 157 -11 102 51 q 46 113 41 242 l 184 267 q 185 191 204 153 q 223 115 263 115 q 292 115 305 133 q 318 152 318 181 q 318 229 297 261 q 276 294 230 334 l 144 409 q 110 438 90 463 q 70 488 56 527 q 42 566 42 613 q 42 711 100 765 q 158 819 260 820 q 294 820 322 813 q 351 806 371 794 q 391 783 407 765 q 422 748 432 729 q 442 710 449 686 q 456 663 458 641 q 461 620 463 595 l 321 573 q 320 598 319 614 q 317 631 313 649 q 309 667 302 677 q 295 687 284 693 q 272 699 256 698 q 229 697 214 677 q 199 658 199 630 q 199 608 204 590 q 209 572 221 556 q 232 540 242 530 q 251 521 270 504 l 355 430 q 382 405 403 382 q 423 359 441 330 q 459 301 469 266 q 478 230 478 191 q 478 103 421 46 q 363 -11 270 -11 z"},"}":{"x_min":0,"x_max":369,"ha":369,"o":"m 40 -196 l 40 -92 q 59 -92 70 -91 q 81 -90 90 -85 q 100 -80 104 -73 q 109 -67 112 -52 q 115 -38 115 -22 q 116 -5 116 22 l 116 131 q 116 216 135 260 q 154 304 199 314 q 154 325 135 369 q 116 413 116 498 l 116 607 q 116 635 115 651 q 115 667 112 681 q 109 696 104 702 q 100 709 90 714 q 81 719 70 720 q 59 721 40 721 l 40 825 q 79 825 108 823 q 137 820 160 814 q 183 809 199 801 q 215 794 226 781 q 238 767 244 753 q 251 739 255 716 q 258 693 260 670 q 261 647 261 614 l 261 516 q 261 479 261 458 q 262 438 264 419 q 267 400 270 392 q 273 384 281 377 q 289 371 299 369 q 308 368 324 368 l 324 261 q 308 261 299 260 q 290 259 281 252 q 273 246 270 238 q 267 229 264 210 q 262 191 261 171 q 261 150 261 113 l 261 15 q 261 -19 260 -41 q 258 -63 255 -86 q 251 -109 244 -124 q 238 -138 226 -151 q 215 -165 199 -172 q 183 -180 160 -186 q 137 -191 108 -194 q 79 -196 40 -196 z"},"Z":{"x_min":0,"x_max":429,"ha":429,"o":"m 33 0 l 33 103 l 237 697 l 42 697 l 42 810 l 402 810 l 402 723 l 190 112 l 404 112 l 404 0 z"},"x":{"x_min":0,"x_max":429,"ha":429,"o":"m 9 0 l 133 313 l 14 578 l 165 578 l 232 430 l 290 578 l 413 578 l 294 292 l 425 0 l 274 0 l 200 166 l 139 0 z"},")":{"x_min":0,"x_max":310,"ha":310,"o":"m 34 -186 l 34 -81 q 50 -81 63 -71 q 76 -61 85 -44 q 94 -27 101 0 q 108 27 112 59 q 117 90 119 132 q 122 174 123 217 q 124 260 124 314 q 124 379 122 426 q 121 473 118 522 q 115 571 109 603 q 103 636 93 662 q 83 688 68 701 q 53 714 34 714 l 34 818 q 69 818 98 810 q 127 801 150 786 q 172 771 189 747 q 207 722 219 696 q 230 670 239 634 q 248 597 252 563 q 257 530 260 484 q 263 439 264 402 q 265 364 265 314 q 265 251 263 206 q 262 161 256 105 q 251 49 241 10 q 232 -29 215 -68 q 198 -108 174 -132 q 150 -156 114 -171 q 79 -186 34 -186 z"},"&":{"x_min":0,"x_max":580,"ha":580,"o":"m 244 485 q 265 520 284 570 q 303 621 303 659 q 303 683 289 696 q 275 710 253 710 q 231 710 218 692 q 205 673 205 645 q 205 627 210 602 q 215 577 220 560 q 225 543 234 516 q 242 490 244 485 z m 229 95 q 277 95 309 137 q 219 305 213 321 q 171 254 171 185 q 171 145 187 120 q 204 95 229 95 z m 226 -11 q 145 -11 94 41 q 44 93 44 176 q 44 247 77 312 q 109 376 159 423 q 151 439 132 475 q 113 510 104 530 q 94 550 85 581 q 76 612 76 640 q 76 718 123 769 q 170 820 249 820 q 326 820 377 775 q 428 730 428 653 q 428 633 424 612 q 419 592 415 576 q 410 561 398 541 q 387 521 380 510 q 373 500 357 480 q 340 461 334 454 q 329 447 310 428 q 292 409 289 405 l 387 229 q 399 251 407 299 q 415 346 417 393 l 530 393 q 530 261 466 144 q 476 131 495 121 q 514 111 534 109 l 534 -10 q 518 -13 509 -13 q 500 -13 490 -11 q 480 -9 472 -6 q 465 -4 455 2 q 444 8 439 12 q 434 15 423 24 q 413 33 410 36 q 407 39 396 49 q 385 59 383 60 q 356 26 316 8 q 275 -11 226 -11 z"},"_":{"x_min":0,"x_max":362,"ha":362,"o":"m 0 -161 l 0 -57 l 362 -57 l 362 -161 z"},"v":{"x_min":0,"x_max":413,"ha":413,"o":"m 125 0 l 12 578 l 158 578 l 209 186 l 259 578 l 404 578 l 289 0 z"},"O":{"x_min":0,"x_max":575,"ha":575,"o":"m 287 -11 q 221 -11 174 7 q 128 25 100 60 q 73 96 60 144 q 48 191 48 256 l 48 555 q 48 620 60 668 q 73 715 100 750 q 128 785 174 802 q 221 820 287 820 q 415 820 471 753 q 527 686 527 555 l 527 256 q 527 125 471 57 q 415 -11 287 -11 z m 358 216 l 358 595 q 358 615 357 629 q 356 643 352 657 q 347 672 340 681 q 332 690 319 696 q 305 702 287 702 q 268 702 255 696 q 242 690 234 681 q 227 672 223 657 q 219 642 218 628 q 216 615 216 595 l 216 216 q 216 197 218 183 q 219 169 223 154 q 227 139 234 129 q 242 120 255 114 q 268 108 287 108 q 305 108 319 114 q 332 120 340 129 q 347 139 352 154 q 356 169 357 183 q 358 197 358 216 z"},"(":{"x_min":0,"x_max":329,"ha":329,"o":"m 295 -186 q 260 -186 231 -177 q 202 -168 179 -153 q 157 -138 140 -113 q 123 -88 111 -62 q 99 -35 90 1 q 81 38 76 71 q 72 104 69 149 q 66 193 65 229 q 64 265 64 313 q 64 363 65 401 q 66 438 69 484 q 72 529 77 563 q 82 597 90 633 q 99 670 111 696 q 123 722 140 747 q 157 771 179 786 q 202 801 231 810 q 260 818 295 818 l 295 713 q 276 713 261 701 q 246 688 236 661 q 227 635 220 602 q 214 569 211 521 q 208 472 207 425 q 206 378 206 313 q 206 249 207 200 q 208 152 212 105 q 215 58 222 26 q 228 -6 238 -31 q 248 -57 262 -69 q 276 -81 295 -81 z"},"C":{"x_min":0,"x_max":551,"ha":551,"o":"m 285 -11 q 219 -11 172 9 q 125 28 98 65 q 71 102 60 150 q 48 198 48 261 l 48 547 q 48 613 60 661 q 71 709 98 746 q 125 783 172 801 q 218 820 285 820 q 349 820 393 803 q 438 787 464 755 q 489 724 501 682 q 512 641 512 586 l 512 516 l 352 516 l 352 592 q 352 605 352 611 q 352 616 351 628 q 351 641 349 646 q 348 651 346 661 q 344 670 341 675 q 337 679 333 686 q 328 692 321 695 q 314 697 305 699 q 296 702 286 702 q 267 702 253 695 q 240 688 232 679 q 225 669 221 652 q 217 635 216 621 q 215 606 215 584 l 215 223 q 215 164 230 136 q 245 108 286 108 q 301 108 313 112 q 325 116 332 125 q 339 134 343 142 q 347 151 349 167 q 351 182 351 193 q 352 204 352 223 l 352 302 l 512 302 l 512 233 q 512 177 501 135 q 490 93 465 59 q 440 25 395 7 q 350 -11 285 -11 z"},"W":{"x_min":0,"x_max":708,"ha":708,"o":"m 136 0 l 30 810 l 169 810 l 226 316 l 298 810 l 408 810 l 484 317 l 540 810 l 678 810 l 572 0 l 433 0 l 354 512 l 277 0 z"},"A":{"x_min":0,"x_max":537,"ha":537,"o":"m 221 281 l 317 281 l 269 604 z m 20 0 l 178 810 l 359 810 l 517 0 l 364 0 l 334 179 l 206 179 l 176 0 z"},"f":{"x_min":0,"x_max":313,"ha":313,"o":"m 76 0 l 76 474 l 18 474 l 18 578 l 76 578 l 76 614 q 76 649 79 673 q 82 697 91 720 q 100 744 116 757 q 133 771 161 779 q 188 788 228 788 q 257 788 304 782 l 304 670 q 270 675 268 675 q 227 675 227 623 l 227 578 l 304 578 l 304 474 l 227 474 l 227 0 z"},"Q":{"x_min":0,"x_max":575,"ha":575,"o":"m 358 216 l 358 595 q 358 615 357 629 q 356 643 352 657 q 347 672 340 681 q 332 690 319 696 q 305 702 287 702 q 268 702 255 696 q 242 690 234 681 q 227 672 223 657 q 219 642 218 628 q 216 615 216 595 l 216 216 q 216 197 218 183 q 219 169 223 154 q 227 139 234 129 q 242 120 255 114 q 268 108 287 108 q 305 108 319 114 q 332 120 340 129 q 347 139 352 154 q 356 169 357 183 q 358 197 358 216 z m 465 -161 q 428 -145 381 -100 q 333 -56 304 -10 q 298 -11 287 -11 q 221 -11 174 7 q 128 25 100 60 q 73 96 60 144 q 48 191 48 256 l 48 555 q 48 620 60 668 q 73 715 100 750 q 128 785 174 802 q 221 820 287 820 q 415 820 471 753 q 527 686 527 555 l 527 256 q 527 71 417 16 q 465 -38 498 -57 z"},"w":{"x_min":0,"x_max":596,"ha":596,"o":"m 109 0 l 23 578 l 148 578 l 194 229 l 247 578 l 356 578 l 404 224 l 455 578 l 574 578 l 484 0 l 355 0 l 299 341 l 239 0 z"},"-":{"x_min":0,"x_max":371,"ha":371,"o":"m 60 285 l 60 385 l 311 385 l 311 285 z"},"E":{"x_min":0,"x_max":438,"ha":438,"o":"m 60 0 l 60 810 l 413 810 l 413 695 l 225 695 l 225 481 l 371 481 l 371 366 l 225 366 l 225 112 l 415 112 l 415 0 z"},"s":{"x_min":0,"x_max":411,"ha":411,"o":"m 212 -10 q 68 -10 20 140 l 129 184 q 157 95 208 95 q 209 95 211 95 q 230 96 242 108 q 252 120 252 137 q 252 138 252 140 q 251 166 185 223 l 125 273 q 34 351 34 430 q 34 500 84 544 q 133 587 206 587 q 275 587 320 548 q 365 508 382 438 l 283 394 q 274 430 257 455 q 239 480 213 480 q 212 480 210 480 q 193 480 182 470 q 170 458 170 442 q 169 431 180 415 q 191 400 202 390 q 212 380 235 360 l 294 307 q 312 291 323 281 q 333 271 348 254 q 363 237 371 222 q 379 208 385 188 q 392 167 392 146 q 392 97 367 61 q 342 25 302 8 q 262 -10 212 -10 z"},">":{"x_min":0,"x_max":393,"ha":393,"o":"m 55 80 l 55 215 l 250 355 l 55 494 l 55 630 l 360 417 l 360 292 z"},"l":{"x_min":0,"x_max":265,"ha":265,"o":"m 59 0 l 59 810 l 210 810 l 210 0 z"},"8":{"x_min":0,"x_max":517,"ha":517,"o":"m 258 485 q 314 485 314 609 q 314 652 301 678 q 287 704 258 704 q 229 704 215 678 q 201 653 201 609 q 201 485 258 485 z m 258 104 q 276 104 288 112 q 301 120 308 132 q 314 144 318 162 q 322 181 323 195 q 324 210 324 229 q 324 256 322 276 q 319 296 313 316 q 307 336 293 347 q 279 357 258 357 q 238 357 224 347 q 210 336 203 316 q 197 296 194 276 q 192 256 192 229 q 192 210 193 195 q 194 180 198 162 q 202 144 209 132 q 216 120 229 112 q 241 104 258 104 z m 42 233 q 42 236 42 239 q 42 304 65 353 q 89 402 135 427 q 56 486 54 603 q 54 607 54 610 q 54 708 104 763 q 157 819 258 819 q 359 819 411 763 q 461 708 461 609 q 461 606 461 603 q 459 483 381 427 q 427 401 450 353 q 474 304 475 239 q 475 234 475 230 q 475 -12 258 -12 q 42 -12 42 233 z"},"\\":{"x_min":0,"x_max":411,"ha":411,"o":"m 279 0 l 40 810 l 132 810 l 370 0 z"},"e":{"x_min":0,"x_max":459,"ha":459,"o":"m 190 353 l 279 353 l 279 410 q 279 447 268 463 q 257 479 233 479 q 210 479 200 461 q 190 442 190 396 z m 234 -10 q 137 -10 89 43 q 41 96 41 195 l 41 382 q 41 481 89 534 q 138 587 234 587 q 332 587 376 534 q 420 481 420 377 l 420 280 l 190 280 l 190 186 q 190 143 199 121 q 208 99 234 99 q 279 99 279 164 l 279 218 l 420 218 l 420 171 q 420 83 372 37 q 324 -10 234 -10 z"},"b":{"x_min":0,"x_max":493,"ha":493,"o":"m 256 93 q 256 93 257 93 q 280 93 290 115 q 300 139 299 178 l 299 415 q 299 490 256 490 q 255 490 253 490 q 231 490 204 470 l 204 109 q 229 93 256 93 z m 319 -10 q 261 -10 204 43 l 204 0 l 53 0 l 53 810 l 204 810 l 204 535 q 260 587 322 587 q 323 587 325 587 q 360 587 385 570 q 411 553 425 526 q 438 499 444 469 q 451 439 451 406 l 451 185 q 451 98 418 44 q 385 -10 319 -10 z"},"%":{"x_min":0,"x_max":992,"ha":992,"o":"m 330 0 l 567 810 l 662 810 l 423 0 z m 765 -2 q 667 -2 624 50 q 581 103 581 209 l 581 247 q 581 355 623 405 q 665 454 765 454 q 864 454 907 406 q 950 357 950 250 l 950 208 q 950 101 906 49 q 863 -2 765 -2 z m 821 212 l 821 246 q 821 270 821 284 q 820 298 817 313 q 814 328 808 335 q 802 343 791 348 q 781 353 765 353 q 749 353 738 348 q 728 343 721 335 q 715 328 712 313 q 709 298 709 284 q 708 270 708 246 l 708 212 q 708 188 709 173 q 710 158 713 142 q 716 126 722 118 q 729 109 739 104 q 750 98 765 98 q 780 98 791 104 q 801 109 807 118 q 813 127 816 143 q 820 159 821 174 q 821 188 821 212 z m 226 355 q 128 355 85 408 q 42 460 42 566 l 42 605 q 42 713 84 763 q 126 812 226 812 q 326 812 369 763 q 411 715 411 608 l 411 565 q 411 458 368 407 q 324 355 226 355 z m 226 456 q 241 456 252 462 q 263 467 269 476 q 275 485 278 500 q 281 516 282 531 q 283 546 283 570 l 283 603 q 283 628 282 642 q 282 656 279 671 q 276 686 270 693 q 264 701 253 706 q 242 710 226 710 q 210 710 199 706 q 189 701 183 693 q 177 686 174 671 q 171 656 170 642 q 169 628 169 604 l 169 570 q 169 550 170 537 q 171 524 173 510 q 175 496 179 487 q 183 478 189 470 q 195 463 204 459 q 213 456 226 456 z"},"m":{"x_min":0,"x_max":737,"ha":737,"o":"m 52 0 l 52 578 l 198 578 l 198 530 q 256 589 335 589 q 369 589 395 571 q 420 554 433 519 q 494 589 580 589 q 629 589 659 552 q 689 516 689 450 l 689 0 l 542 0 l 542 436 q 542 463 533 475 q 524 487 505 486 q 475 486 443 459 q 444 457 444 450 l 444 0 l 298 0 l 298 436 q 299 463 289 475 q 280 486 263 486 q 262 486 260 486 q 232 486 198 458 l 198 0 z"},"#":{"x_min":0,"x_max":523,"ha":523,"o":"m 215 373 l 295 373 l 309 479 l 229 479 z m 59 0 l 92 274 l 42 274 l 43 373 l 106 373 l 119 479 l 44 479 l 46 579 l 136 579 l 164 810 l 274 810 l 245 579 l 325 579 l 354 810 l 462 810 l 434 579 l 481 579 l 480 479 l 417 479 l 404 373 l 479 373 l 477 274 l 390 274 l 356 0 l 247 0 l 281 274 l 201 274 l 167 0 z"},",":{"x_min":0,"x_max":225,"ha":225,"o":"m 64 -139 l 52 -86 q 82 -79 101 -58 q 120 -37 120 0 l 42 0 l 42 144 l 187 144 l 187 15 q 187 -123 64 -139 z"},"n":{"x_min":0,"x_max":492,"ha":492,"o":"m 52 0 l 52 578 l 203 578 l 203 521 q 272 587 343 587 q 394 587 419 551 q 444 514 444 458 l 444 0 l 293 0 l 293 431 q 293 455 286 466 q 278 478 258 478 q 235 478 203 455 l 203 0 z"},"h":{"x_min":0,"x_max":495,"ha":495,"o":"m 53 0 l 53 810 l 204 810 l 204 524 q 269 587 346 587 q 396 587 422 551 q 447 514 447 458 l 447 0 l 296 0 l 296 431 q 296 455 289 466 q 282 478 263 478 q 262 478 261 478 q 238 478 204 453 l 204 0 z"},"z":{"x_min":0,"x_max":381,"ha":381,"o":"m 34 0 l 34 98 l 196 467 l 47 467 l 47 578 l 354 578 l 354 488 l 192 111 l 355 111 l 355 0 z"},"B":{"x_min":0,"x_max":573,"ha":573,"o":"m 225 483 l 264 483 q 325 483 348 510 q 370 537 370 597 q 370 653 341 675 q 312 697 250 697 l 225 697 z m 225 116 l 270 116 q 332 116 356 145 q 380 174 380 240 q 380 311 354 341 q 328 371 265 371 l 225 371 z m 60 0 l 60 810 l 265 810 q 310 810 345 804 q 381 799 414 785 q 447 771 468 748 q 490 725 502 688 q 514 651 514 604 q 514 602 514 600 q 512 454 395 435 q 537 413 538 238 q 538 235 538 232 q 538 118 479 60 q 417 0 302 0 z"},"K":{"x_min":0,"x_max":550,"ha":550,"o":"m 60 0 l 60 810 l 225 810 l 225 470 l 372 810 l 531 810 l 379 445 l 542 0 l 375 0 l 248 371 l 225 332 l 225 0 z"},"R":{"x_min":0,"x_max":579,"ha":579,"o":"m 225 465 l 266 465 q 325 465 350 493 q 375 521 375 583 q 375 643 353 670 q 332 698 275 698 l 225 698 z m 60 0 l 60 810 l 265 810 q 329 810 375 800 q 422 790 458 766 q 494 742 511 699 q 529 657 529 595 q 529 517 507 468 q 485 420 431 395 l 542 0 l 375 0 l 282 365 l 225 365 l 225 0 z"},"T":{"x_min":0,"x_max":436,"ha":436,"o":"m 137 0 l 137 688 l 7 688 l 7 810 l 429 810 l 429 688 l 301 688 l 301 0 z"},"P":{"x_min":0,"x_max":545,"ha":545,"o":"m 225 468 l 277 468 q 332 468 351 492 q 369 517 369 579 q 369 611 366 629 q 364 647 355 664 q 346 680 327 687 q 308 694 277 694 l 225 694 z m 60 0 l 60 810 l 313 810 q 524 810 524 577 q 524 514 507 469 q 491 425 459 400 q 428 375 389 364 q 349 353 298 353 l 225 353 l 225 0 z"},"|":{"x_min":0,"x_max":258,"ha":258,"o":"m 65 -171 l 65 810 l 193 810 l 193 -171 z"},"t":{"x_min":0,"x_max":344,"ha":344,"o":"m 214 -7 q 179 -6 153 4 q 127 15 112 31 q 97 48 87 73 q 78 99 75 125 q 71 151 71 185 l 71 479 l 16 479 l 16 578 l 71 578 l 71 751 l 224 751 l 224 578 l 309 578 l 309 479 l 224 479 l 224 165 q 224 116 276 114 q 277 114 279 114 q 295 114 318 118 l 318 0 q 259 -7 223 -7 q 218 -7 214 -7 z"},"M":{"x_min":0,"x_max":694,"ha":694,"o":"m 58 0 l 71 810 l 245 810 l 347 293 l 454 810 l 623 810 l 636 0 l 515 0 l 504 546 l 399 0 l 298 0 l 190 549 l 180 0 z"},"g":{"x_min":0,"x_max":483,"ha":483,"o":"m 237 271 q 268 271 277 295 q 286 319 286 382 q 286 408 285 424 q 285 439 282 455 q 279 470 274 477 q 269 485 260 490 q 250 494 237 494 q 224 494 215 489 q 206 484 200 477 q 195 469 193 453 q 190 438 189 423 q 188 407 188 382 q 188 353 190 335 q 192 316 197 301 q 202 286 211 279 q 221 271 237 271 z m 261 -75 q 301 -75 320 -65 q 339 -56 340 -35 q 341 -31 341 -27 q 341 -7 329 3 q 314 15 277 19 l 188 28 q 162 -6 162 -32 q 162 -55 183 -65 q 203 -75 261 -75 z m 261 -174 q 232 -174 210 -173 q 187 -172 157 -169 q 127 -166 106 -159 q 84 -151 65 -140 q 45 -129 34 -111 q 24 -93 24 -70 q 24 -5 105 48 q 72 61 56 77 q 41 93 38 114 q 37 121 37 126 q 37 150 51 170 q 68 194 106 225 q 75 249 59 284 q 43 319 43 376 q 43 483 93 535 q 143 587 234 587 q 326 587 363 535 q 398 576 441 597 l 461 607 l 497 529 q 480 524 448 511 q 415 497 399 488 q 410 471 417 440 q 425 410 425 376 q 425 282 381 230 q 336 178 243 178 q 224 178 198 182 q 172 187 160 192 q 144 171 144 156 q 144 155 144 153 q 146 137 196 130 q 206 128 251 123 q 296 118 312 116 q 391 106 425 73 q 458 39 458 -24 q 458 -98 413 -136 q 368 -174 261 -174 z"},"j":{"x_min":0,"x_max":266,"ha":266,"o":"m 64 673 l 64 788 l 216 788 l 216 673 z m -12 -159 l -12 -50 q 8 -54 17 -54 q 65 -54 65 -1 l 65 578 l 216 578 l 216 -19 q 216 -88 177 -129 q 138 -170 68 -170 q 27 -170 -12 -159 z"},"i":{"x_min":0,"x_max":258,"ha":258,"o":"m 54 673 l 54 788 l 206 788 l 206 673 z m 54 0 l 54 578 l 205 578 l 205 0 z"},"y":{"x_min":0,"x_max":434,"ha":434,"o":"m 62 -162 l 62 -55 q 118 -55 139 -44 q 155 -35 156 -9 q 156 -3 155 3 q 151 28 134 92 q 125 129 69 335 q 13 541 4 578 l 149 578 l 221 224 l 279 578 l 424 578 l 287 -31 q 259 -162 86 -162 q 84 -162 82 -162 z"},"@":{"x_min":0,"x_max":944,"ha":944,"o":"m 471 208 q 478 209 484 212 q 491 214 500 220 q 509 225 517 235 q 524 244 528 256 l 559 489 q 558 494 549 497 q 541 500 533 500 q 495 500 465 470 q 435 440 419 396 q 404 351 404 302 q 403 259 420 232 q 435 208 464 208 q 467 208 471 208 z m 473 -131 q 260 -131 149 -10 q 55 94 55 269 q 55 298 58 328 q 72 554 200 682 q 329 810 539 810 q 619 810 683 789 q 748 767 792 729 q 835 691 864 639 q 893 587 903 525 q 911 484 911 440 q 911 418 909 395 q 906 353 896 312 q 885 271 865 231 q 844 192 815 163 q 787 133 745 115 q 704 97 655 97 q 611 97 576 118 q 542 138 533 176 q 522 147 498 127 q 473 107 439 104 q 431 104 424 104 q 393 104 366 115 q 333 130 312 158 q 292 186 281 223 q 271 255 271 293 q 271 298 271 303 q 272 342 281 383 q 291 423 310 464 q 329 505 354 538 q 380 570 419 590 q 458 610 502 610 q 516 610 527 605 q 539 600 548 590 q 557 580 561 573 q 565 567 571 557 q 572 556 572 555 q 573 554 573 553 l 583 604 l 701 604 l 654 264 q 650 235 650 217 q 650 202 653 194 q 657 183 667 182 q 672 181 677 181 q 720 181 757 237 q 799 301 804 391 q 806 413 806 433 q 806 465 802 495 q 795 542 775 583 q 754 624 722 653 q 689 682 640 698 q 591 714 528 714 q 446 714 380 685 q 314 655 271 603 q 228 551 203 482 q 179 414 173 331 q 170 302 170 275 q 170 141 235 62 q 312 -33 487 -33 q 528 -33 582 -25 q 637 -16 681 -2 l 700 -98 q 572 -131 473 -131 z"},".":{"x_min":0,"x_max":229,"ha":229,"o":"m 45 0 l 45 146 l 190 146 l 190 0 z"},"p":{"x_min":0,"x_max":492,"ha":492,"o":"m 254 93 q 271 93 281 105 q 292 117 295 135 q 298 153 298 178 l 298 415 q 298 449 287 470 q 277 490 254 490 q 253 490 251 490 q 230 490 203 470 l 203 109 q 228 93 254 93 z m 52 -190 l 52 578 l 203 578 l 203 535 q 259 587 321 587 q 322 587 324 587 q 359 587 385 570 q 410 553 424 526 q 437 499 443 469 q 450 439 450 406 l 450 185 q 450 98 417 44 q 384 -10 318 -10 q 261 -10 203 43 l 203 -190 z"},"X":{"x_min":0,"x_max":508,"ha":508,"o":"m 8 0 l 168 433 l 14 810 l 169 810 l 265 576 l 345 810 l 486 810 l 338 396 l 500 0 l 346 0 l 241 255 l 148 0 z"},"*":{"x_min":0,"x_max":418,"ha":418,"o":"m 167 454 l 79 506 l 151 610 l 42 652 l 76 743 l 177 688 l 164 809 l 277 809 l 265 688 l 365 744 l 399 651 l 290 609 l 364 507 l 273 454 l 221 565 z"},"Y":{"x_min":0,"x_max":492,"ha":492,"o":"m 167 0 l 167 321 l 9 810 l 163 810 l 250 523 l 332 810 l 483 810 l 325 321 l 325 0 z"},"c":{"x_min":0,"x_max":455,"ha":455,"o":"m 233 -10 q 137 -10 89 43 q 41 97 41 194 l 41 384 q 41 482 88 535 q 136 587 233 587 q 419 587 419 412 l 419 357 l 275 357 l 275 415 q 275 453 266 468 q 256 482 234 482 q 210 482 201 465 q 192 447 192 401 l 192 175 q 192 129 202 113 q 212 96 234 96 q 257 96 266 112 q 275 127 275 162 l 275 231 l 419 231 l 419 168 q 419 81 372 35 q 325 -10 233 -10 z"},"!":{"x_min":0,"x_max":244,"ha":244,"o":"m 92 197 l 48 808 l 198 808 l 145 197 z m 46 0 l 46 143 l 190 143 l 190 0 z"},"/":{"x_min":0,"x_max":411,"ha":411,"o":"m 40 0 l 278 810 l 370 810 l 131 0 z"},"[":{"x_min":0,"x_max":338,"ha":338,"o":"m 54 -188 l 55 810 l 302 810 l 302 748 l 180 748 l 179 -125 l 301 -125 l 301 -188 z"},"6":{"x_min":0,"x_max":522,"ha":522,"o":"m 271 105 q 289 105 301 115 q 313 124 320 144 q 326 163 328 186 q 331 209 331 244 q 331 266 330 277 q 330 288 329 306 q 328 324 325 333 q 323 343 319 354 q 314 366 308 372 q 301 377 292 382 q 282 386 269 386 q 248 386 231 374 q 215 362 207 346 l 207 219 q 207 105 271 105 z m 269 -11 q 212 -11 169 9 q 127 29 101 66 q 76 103 63 150 q 50 198 50 256 l 50 538 q 50 588 56 629 q 62 669 77 706 q 92 742 116 767 q 140 791 179 805 q 217 820 268 820 q 375 820 424 768 q 473 716 475 614 l 475 601 l 328 601 q 328 655 316 678 q 305 702 269 702 q 233 702 220 666 q 207 630 207 537 l 207 454 q 220 477 247 490 q 274 502 310 503 q 312 503 313 503 q 349 503 378 492 q 408 480 428 460 q 448 439 461 410 q 474 380 479 346 q 485 312 485 271 q 485 220 478 179 q 472 137 456 101 q 440 65 416 41 q 392 17 354 3 q 317 -11 269 -11 z"},"r":{"x_min":0,"x_max":360,"ha":360,"o":"m 54 0 l 54 578 l 205 578 l 205 485 q 258 585 323 585 q 333 585 345 582 l 345 442 q 328 448 309 448 q 276 446 252 431 q 227 416 205 382 l 205 0 z"},"2":{"x_min":0,"x_max":517,"ha":517,"o":"m 50 0 l 50 109 l 245 412 q 249 417 268 447 q 288 477 294 488 q 300 499 312 522 q 324 546 328 567 q 333 587 333 609 q 333 651 315 672 q 301 691 275 691 q 271 691 267 690 q 203 685 203 570 l 203 534 l 53 534 l 53 573 q 53 628 65 673 q 77 717 103 751 q 128 785 171 803 q 214 821 271 821 q 377 821 431 765 q 485 709 485 607 q 485 573 478 541 q 471 510 456 479 q 441 449 428 428 q 415 407 393 374 q 385 364 382 358 l 226 123 l 464 123 l 464 0 z"},"{":{"x_min":0,"x_max":358,"ha":358,"o":"m 329 -196 q 277 -196 242 -192 q 207 -188 182 -177 q 157 -166 143 -152 q 129 -138 121 -112 q 113 -85 111 -58 q 109 -30 109 15 l 109 113 q 109 150 108 171 q 108 191 105 210 q 103 229 99 238 q 96 246 88 252 q 80 258 71 260 q 61 261 45 261 l 45 368 q 61 368 71 370 q 80 371 88 377 q 96 384 99 392 q 103 400 105 419 q 108 438 108 458 q 109 479 109 516 l 109 614 q 109 647 110 670 q 111 693 115 716 q 119 739 125 753 q 131 767 143 781 q 155 794 170 801 q 186 809 209 814 q 232 820 261 823 q 291 825 329 825 l 329 721 q 311 721 299 720 q 288 719 279 714 q 270 709 265 702 q 261 696 258 682 q 254 667 254 651 q 253 635 253 607 l 253 498 q 253 413 234 369 q 216 325 170 314 q 216 304 234 260 q 253 216 253 131 l 253 22 q 253 -11 254 -29 q 256 -47 260 -62 q 264 -76 273 -82 q 282 -87 295 -90 q 307 -92 329 -92 z"},"9":{"x_min":0,"x_max":522,"ha":522,"o":"m 260 423 q 299 423 320 463 l 320 590 q 320 614 317 632 q 315 651 309 668 q 303 685 290 694 q 277 704 259 704 q 244 704 233 697 q 222 690 216 679 q 209 668 206 650 q 202 632 200 612 q 199 592 199 565 q 199 543 199 532 q 200 521 201 503 q 202 485 204 476 q 206 467 210 455 q 215 443 221 437 q 228 432 238 427 q 248 423 260 423 z m 258 -11 q 150 -11 102 41 q 54 93 53 197 l 53 208 l 200 208 q 200 154 211 131 q 223 108 259 108 q 295 108 308 143 q 320 178 320 272 l 320 355 q 307 333 280 320 q 253 307 217 306 q 216 306 214 306 q 178 306 149 317 q 119 329 99 351 q 80 373 67 404 q 54 435 48 469 q 42 504 42 545 q 42 820 259 820 q 315 820 358 801 q 400 782 426 746 q 452 711 465 664 q 477 618 477 560 l 477 271 q 477 221 471 180 q 465 140 450 104 q 435 67 411 42 q 386 18 348 4 q 309 -11 258 -11 z"}," ":{"x_min":0,"x_max":251,"ha":251,"o":""},"I":{"x_min":0,"x_max":289,"ha":289,"o":"m 63 0 l 63 810 l 227 810 l 227 0 z"},"H":{"x_min":0,"x_max":598,"ha":598,"o":"m 62 0 l 62 810 l 228 810 l 228 478 l 370 478 l 370 810 l 535 810 l 535 0 l 370 0 l 370 360 l 228 360 l 228 0 z"},"4":{"x_min":0,"x_max":523,"ha":523,"o":"m 158 310 l 277 310 l 277 650 z m 277 0 l 277 191 l 34 191 l 34 318 l 242 810 l 418 810 l 418 310 l 499 310 l 499 191 l 418 191 l 418 0 z"},"~":{"x_min":0,"x_max":476,"ha":476,"o":"m 321 339 q 298 339 265 354 q 232 369 203 384 q 173 398 157 398 q 145 398 124 386 q 104 373 87 353 l 39 418 q 61 451 95 479 q 129 507 158 507 q 182 507 214 492 q 247 478 276 464 q 305 449 320 449 q 345 449 390 495 l 442 438 q 423 401 388 370 q 353 339 321 339 z"},"D":{"x_min":0,"x_max":570,"ha":570,"o":"m 60 0 l 60 810 l 257 810 q 333 810 385 795 q 436 781 466 749 q 497 717 509 671 q 522 625 522 555 l 522 263 q 522 193 509 145 q 497 97 466 64 q 436 30 386 15 q 335 0 261 0 z m 225 115 l 259 115 q 276 115 289 117 q 303 119 312 124 q 322 128 329 134 q 336 139 341 148 q 345 158 348 167 q 351 175 352 190 q 353 206 353 217 q 354 229 354 249 l 354 574 q 354 603 352 620 q 351 637 345 653 q 340 668 329 676 q 319 684 301 689 q 284 693 257 693 l 225 693 z"},"^":{"x_min":0,"x_max":472,"ha":472,"o":"m 31 476 l 172 810 l 299 810 l 441 476 l 309 476 l 235 684 l 163 476 z"},"0":{"x_min":0,"x_max":523,"ha":523,"o":"m 262 -13 q 157 -13 102 51 q 46 114 46 221 l 46 583 q 46 693 100 757 q 154 820 262 820 q 369 820 423 757 q 478 693 478 583 l 478 221 q 478 115 422 51 q 366 -13 262 -13 z m 262 122 q 321 122 321 224 l 321 579 q 321 600 319 615 q 318 629 312 647 q 307 666 294 675 q 282 685 262 685 q 248 685 238 680 q 228 676 221 667 q 215 658 211 649 q 208 639 206 625 q 204 612 204 602 q 203 593 203 579 l 203 224 q 203 122 262 122 z"},"F":{"x_min":0,"x_max":423,"ha":423,"o":"m 60 0 l 60 810 l 403 810 l 403 697 l 225 697 l 225 479 l 373 479 l 373 363 l 225 363 l 225 0 z"},"`":{"x_min":0,"x_max":304,"ha":304,"o":"m 169 609 l 45 810 l 200 810 l 260 609 z"},"k":{"x_min":0,"x_max":513,"ha":513,"o":"m 53 0 l 53 810 l 203 810 l 203 355 l 344 578 l 512 578 l 364 344 l 510 0 l 348 0 l 246 279 l 203 221 l 203 0 z"},"u":{"x_min":0,"x_max":489,"ha":489,"o":"m 148 -9 q 98 -9 72 28 q 47 64 47 121 l 47 578 l 198 578 l 198 144 q 198 120 206 108 q 214 97 232 97 q 233 97 234 97 q 256 97 286 117 l 286 578 l 437 578 l 437 0 l 286 0 l 286 54 q 219 -9 148 -9 z"},"]":{"x_min":0,"x_max":323,"ha":323,"o":"m 21 -188 l 21 -125 l 144 -125 l 143 747 l 21 747 l 21 810 l 268 810 l 269 -188 z"},"U":{"x_min":0,"x_max":576,"ha":576,"o":"m 288 -11 q 220 -11 174 7 q 128 25 102 61 q 76 98 65 146 q 54 194 54 262 l 54 810 l 216 810 l 216 241 q 216 218 217 202 q 218 186 222 167 q 227 148 234 137 q 242 125 255 118 q 269 110 288 110 q 307 110 321 118 q 335 125 342 137 q 350 148 354 167 q 358 186 359 202 q 360 218 360 241 l 360 810 l 522 810 l 522 262 q 522 194 511 146 q 500 98 475 61 q 449 25 403 7 q 356 -11 288 -11 z"},"o":{"x_min":0,"x_max":470,"ha":470,"o":"m 234 -10 q 140 -10 90 41 q 41 91 41 186 l 41 392 q 41 486 90 537 q 140 587 234 587 q 328 587 379 537 q 429 486 429 392 l 429 186 q 429 92 379 41 q 328 -10 234 -10 z m 234 94 q 261 94 271 115 q 280 135 280 175 l 280 402 q 280 443 271 464 q 261 484 234 484 q 208 484 199 463 q 190 442 190 402 l 190 175 q 190 136 199 115 q 208 94 234 94 z"},"N":{"x_min":0,"x_max":552,"ha":552,"o":"m 60 0 l 60 810 l 175 810 l 355 389 l 355 810 l 492 810 l 492 0 l 382 0 l 201 447 l 201 0 z"},"+":{"x_min":0,"x_max":443,"ha":443,"o":"m 168 207 l 168 368 l 26 368 l 26 462 l 168 462 l 168 621 l 271 621 l 271 462 l 417 462 l 417 368 l 271 368 l 271 207 z"},"G":{"x_min":0,"x_max":571,"ha":571,"o":"m 268 -11 q 208 -11 165 8 q 122 28 96 65 q 71 103 59 153 q 48 203 48 270 l 48 536 q 48 591 55 633 q 62 676 79 712 q 96 748 123 771 q 150 794 191 807 q 231 820 285 820 q 349 820 394 804 q 439 788 466 756 q 493 725 505 682 q 517 640 517 583 l 517 537 l 357 537 l 357 591 q 357 614 356 628 q 355 642 351 657 q 347 673 340 682 q 333 690 320 696 q 307 702 288 702 q 268 702 254 695 q 240 688 233 677 q 226 667 221 649 q 217 631 217 617 q 216 603 216 580 l 216 229 q 216 170 232 139 q 248 108 292 108 q 336 108 354 141 q 371 174 371 235 l 371 315 l 292 315 l 292 417 l 520 417 l 520 0 l 412 0 l 401 74 q 364 -11 268 -11 z"},"q":{"x_min":0,"x_max":491,"ha":491,"o":"m 241 92 q 261 92 289 108 l 289 472 q 263 488 241 488 q 217 488 205 467 q 194 446 194 414 l 194 173 q 194 92 241 92 z m 289 -190 l 289 44 q 236 -9 180 -10 q 42 -10 42 184 l 42 388 q 42 478 76 533 q 109 587 179 587 q 237 587 289 540 l 289 578 l 440 578 l 440 -190 z"},"d":{"x_min":0,"x_max":490,"ha":490,"o":"m 240 92 q 260 92 287 106 l 287 473 q 263 488 240 488 q 216 488 205 467 q 194 446 194 414 l 194 173 q 194 92 240 92 z m 180 -10 q 42 -10 42 184 l 42 388 q 42 446 56 490 q 69 533 100 560 q 132 587 179 587 q 236 587 287 542 l 287 810 l 438 810 l 438 0 l 287 0 l 287 42 q 236 -9 180 -10 z"},"1":{"x_min":0,"x_max":517,"ha":517,"o":"m 212 0 l 212 647 l 91 606 l 91 721 q 132 738 179 762 q 227 787 247 810 l 367 810 l 367 0 z"},"5":{"x_min":0,"x_max":516,"ha":516,"o":"m 262 -13 q 212 -13 175 -1 q 138 10 115 31 q 91 52 77 84 q 63 116 58 152 q 53 188 53 236 l 203 236 q 203 201 206 179 q 208 156 215 138 q 222 119 235 111 q 248 103 268 103 q 269 103 271 103 q 282 104 291 106 q 300 109 306 117 q 312 124 317 131 q 322 139 324 152 q 327 166 329 177 q 331 187 331 207 q 332 226 332 240 q 333 253 333 277 q 333 300 332 317 q 331 334 328 352 q 326 370 321 382 q 316 394 309 403 q 302 413 291 418 q 279 423 264 423 q 209 423 195 351 l 62 351 l 72 810 l 446 810 l 446 675 l 200 675 l 191 499 q 204 514 232 524 q 260 535 293 538 q 302 538 310 538 q 390 538 433 478 q 479 411 479 285 q 479 239 476 203 q 473 167 464 132 q 456 97 440 72 q 424 46 400 27 q 377 7 342 -3 q 307 -13 262 -13 z"}}}
